<svg width="121" height="121" viewBox="0 0 121 121" version="1.1" xmlns="http://www.w3.org/2000/svg" xmlns:xlink="http://www.w3.org/1999/xlink">
<title>Vector</title>
<desc>Created using Figma</desc>
<g id="Canvas" transform="translate(210 4317)">
<g id="Vector">
<mask id="mask0_outline_ins">
<use xlink:href="#path0_fill" fill="white" transform="translate(-209.549 -4316.67)"/>
<use xlink:href="#path1_fill" fill="white" transform="translate(-209.549 -4316.67)"/>
<use xlink:href="#path2_fill" fill="white" transform="translate(-209.549 -4316.67)"/>
</mask>
<g mask="url(#mask0_outline_ins)">
<use xlink:href="#path3_stroke_2x" transform="translate(-209.549 -4316.67)" fill="#2D2D2D"/>
</g>
</g>
</g>
<defs>
<path id="path0_fill" d="M 88.1534 46.7804C 88.1614 47.8522 87.5959 48.8472 86.6703 49.3901L 61.3422 64.2441C 60.4175 64.7865 59.2737 64.7952 58.3415 64.267L 32.7916 49.7899C 31.8594 49.2617 31.2803 48.2768 31.2723 47.2059L 31.0539 17.8767C 31.0459 16.8048 31.6113 15.8099 32.537 15.267L 57.8651 0.412953C 58.7898 -0.12938 59.9336 -0.138081 60.8658 0.390126L 86.4157 14.8672C 87.3479 15.3954 87.927 16.3803 87.935 17.4511L 88.1534 46.7804Z"/>
<path id="path1_fill" d="M 57.0996 102.487C 57.1076 103.559 56.5422 104.554 55.6165 105.097L 30.2884 119.951C 29.3637 120.493 28.2199 120.502 27.2877 119.973L 1.7378 105.496C 0.805596 104.968 0.226492 103.983 0.218517 102.912L 8.34203e-05 73.5832C -0.0078994 72.5114 0.557543 71.5164 1.48318 70.9736L 26.8113 56.1195C 27.736 55.5772 28.8798 55.5685 29.812 56.0967L 55.3619 70.5737C 56.2941 71.1019 56.8732 72.0869 56.8812 73.1577L 57.0996 102.487Z"/>
<path id="path2_fill" d="M 120.1 102.485C 120.108 103.557 119.542 104.552 118.616 105.095L 93.2883 119.949C 92.3636 120.491 91.2198 120.5 90.2876 119.972L 64.7377 105.494C 63.8055 104.966 63.2264 103.981 63.2184 102.911L 63 73.5813C 62.992 72.5094 63.5575 71.5145 64.4831 70.9716L 89.8112 56.1175C 90.736 55.5752 91.8797 55.5665 92.812 56.0947L 118.362 70.5718C 119.294 71.1 119.873 72.0849 119.881 73.1557L 120.1 102.485Z"/>
<path id="path3_stroke_2x" d="M 86.4157 14.8672L 81.4859 23.5676L 81.4859 23.5676L 86.4157 14.8672ZM 87.935 17.4511L 97.9347 17.3767L 97.9347 17.3767L 87.935 17.4511ZM 57.8651 0.412953L 52.8062 -8.21305L 52.8062 -8.21305L 57.8651 0.412953ZM 60.8658 0.390126L 65.7956 -8.31027L 65.7956 -8.31027L 60.8658 0.390126ZM 31.0539 17.8767L 21.0542 17.9512L 31.0539 17.8767ZM 32.537 15.267L 37.5958 23.893L 37.5958 23.893L 32.537 15.267ZM 32.7916 49.7899L 37.7214 41.0895L 37.7214 41.0895L 32.7916 49.7899ZM 31.2723 47.2059L 41.272 47.1315L 31.2723 47.2059ZM 61.3422 64.2441L 66.4011 72.8701L 66.4011 72.8701L 61.3422 64.2441ZM 58.3415 64.267L 53.4117 72.9674L 53.4117 72.9674L 58.3415 64.267ZM 86.6703 49.3901L 81.6115 40.764L 81.6115 40.764L 86.6703 49.3901ZM 88.1534 46.7804L 78.1537 46.8549L 78.1537 46.8549L 88.1534 46.7804ZM 55.3619 70.5737L 50.4321 79.2741L 50.4321 79.2741L 55.3619 70.5737ZM 56.8812 73.1577L 46.8815 73.2322L 56.8812 73.1577ZM 26.8113 56.1195L 21.7524 47.4935L 21.7524 47.4935L 26.8113 56.1195ZM 29.812 56.0967L 34.7418 47.3963L 34.7418 47.3963L 29.812 56.0967ZM 8.34203e-05 73.5832L -9.99964 73.6577L 8.34203e-05 73.5832ZM 1.48318 70.9736L 6.54203 79.5996L 6.54204 79.5996L 1.48318 70.9736ZM 1.7378 105.496L -3.19201 114.197L -3.19201 114.197L 1.7378 105.496ZM 0.218517 102.912L 10.2182 102.838L 0.218517 102.912ZM 30.2884 119.951L 35.3473 128.577L 35.3473 128.577L 30.2884 119.951ZM 27.2877 119.973L 32.2175 111.273L 32.2175 111.273L 27.2877 119.973ZM 55.6165 105.097L 50.5577 96.4706L 55.6165 105.097ZM 57.0996 102.487L 67.0993 102.412L 57.0996 102.487ZM 118.362 70.5718L 123.292 61.8714L 123.292 61.8714L 118.362 70.5718ZM 119.881 73.1557L 129.881 73.0813L 129.881 73.0813L 119.881 73.1557ZM 89.8112 56.1175L 84.7524 47.4915L 84.7524 47.4915L 89.8112 56.1175ZM 92.812 56.0947L 87.8821 64.7951L 87.8821 64.7951L 92.812 56.0947ZM 63 73.5813L 72.9997 73.5068L 63 73.5813ZM 64.4831 70.9716L 69.542 79.5976L 69.542 79.5976L 64.4831 70.9716ZM 64.7377 105.494L 59.8079 114.195L 59.8079 114.195L 64.7377 105.494ZM 63.2184 102.911L 53.2187 102.985L 63.2184 102.911ZM 93.2883 119.949L 98.3472 128.575L 98.3472 128.575L 93.2883 119.949ZM 90.2876 119.972L 95.2174 111.271L 95.2174 111.271L 90.2876 119.972ZM 118.616 105.095L 113.558 96.4686L 113.558 96.4686L 118.616 105.095ZM 120.1 102.485L 110.1 102.559L 110.1 102.559L 120.1 102.485ZM 81.6115 40.764L 56.2834 55.6181L 66.4011 72.8701L 91.7292 58.0161L 81.6115 40.764ZM 63.2713 55.5666L 37.7214 41.0895L 27.8618 58.4903L 53.4117 72.9674L 63.2713 55.5666ZM 41.272 47.1315L 41.0536 17.8022L 21.0542 17.9512L 21.2726 47.2804L 41.272 47.1315ZM 37.5958 23.893L 62.9239 9.03896L 52.8062 -8.21305L 27.4781 6.64102L 37.5958 23.893ZM 55.936 9.09052L 81.4859 23.5676L 91.3455 6.16678L 65.7956 -8.31027L 55.936 9.09052ZM 77.9353 17.5256L 78.1537 46.8549L 98.1531 46.7059L 97.9347 17.3767L 77.9353 17.5256ZM 81.4859 23.5676C 79.3099 22.3346 77.9539 20.0321 77.9353 17.5256L 97.9347 17.3767C 97.9001 12.7285 95.3859 8.45615 91.3455 6.16678L 81.4859 23.5676ZM 62.9239 9.03896C 60.773 10.3004 58.1103 10.3225 55.936 9.09052L 65.7956 -8.31027C 61.7569 -10.5987 56.8067 -10.5592 52.8062 -8.21305L 62.9239 9.03896ZM 41.0536 17.8022C 41.0723 20.3101 39.7497 22.6299 37.5958 23.893L 27.4781 6.64102C 23.473 8.98989 21.0195 13.2995 21.0542 17.9512L 41.0536 17.8022ZM 37.7214 41.0895C 39.8974 42.3225 41.2534 44.625 41.272 47.1315L 21.2726 47.2804C 21.3072 51.9285 23.8214 56.2009 27.8618 58.4903L 37.7214 41.0895ZM 56.2834 55.6181C 58.4343 54.3566 61.097 54.3345 63.2713 55.5666L 53.4117 72.9674C 57.4504 75.2558 62.4006 75.2163 66.4011 72.8701L 56.2834 55.6181ZM 91.7292 58.0161C 95.7343 55.6672 98.1878 51.3575 98.1531 46.7059L 78.1537 46.8549C 78.135 44.347 79.4576 42.0272 81.6115 40.764L 91.7292 58.0161ZM 50.5577 96.4706L 25.2296 111.325L 35.3473 128.577L 60.6754 113.723L 50.5577 96.4706ZM 32.2175 111.273L 6.66762 96.796L -3.19201 114.197L 22.3579 128.674L 32.2175 111.273ZM 10.2182 102.838L 9.99981 73.5088L -9.99964 73.6577L -9.78121 102.987L 10.2182 102.838ZM 6.54204 79.5996L 31.8701 64.7455L 21.7524 47.4935L -3.57568 62.3476L 6.54204 79.5996ZM 24.8822 64.7971L 50.4321 79.2741L 60.2917 61.8733L 34.7418 47.3963L 24.8822 64.7971ZM 46.8815 73.2322L 47.0999 102.561L 67.0993 102.412L 66.8809 73.0832L 46.8815 73.2322ZM 50.4321 79.2741C 48.2561 78.0412 46.9001 75.7386 46.8815 73.2322L 66.8809 73.0832C 66.8463 68.4351 64.3321 64.1627 60.2917 61.8733L 50.4321 79.2741ZM 31.8701 64.7455C 29.7192 66.007 27.0565 66.0291 24.8822 64.7971L 34.7418 47.3963C 30.7031 45.1078 25.7529 45.1473 21.7524 47.4935L 31.8701 64.7455ZM 9.99981 73.5088C 10.0185 76.0167 8.69588 78.3364 6.54203 79.5996L -3.57568 62.3476C -7.58079 64.6964 -10.0343 69.0061 -9.99964 73.6577L 9.99981 73.5088ZM 6.66762 96.796C 8.84362 98.029 10.1996 100.332 10.2182 102.838L -9.78121 102.987C -9.74659 107.635 -7.23243 111.907 -3.19201 114.197L 6.66762 96.796ZM 25.2296 111.325C 27.3805 110.063 30.0432 110.041 32.2175 111.273L 22.3579 128.674C 26.3966 130.962 31.3468 130.923 35.3473 128.577L 25.2296 111.325ZM 60.6754 113.723C 64.6805 111.374 67.134 107.064 67.0993 102.412L 47.0999 102.561C 47.0812 100.054 48.4038 97.7338 50.5577 96.4706L 60.6754 113.723ZM 113.558 96.4686L 88.2295 111.323L 98.3472 128.575L 123.675 113.721L 113.558 96.4686ZM 95.2174 111.271L 69.6675 96.7941L 59.8079 114.195L 85.3578 128.672L 95.2174 111.271ZM 73.2182 102.836L 72.9997 73.5068L 53.0003 73.6558L 53.2187 102.985L 73.2182 102.836ZM 69.542 79.5976L 94.8701 64.7435L 84.7524 47.4915L 59.4242 62.3456L 69.542 79.5976ZM 87.8821 64.7951L 113.432 79.2722L 123.292 61.8714L 97.7418 47.3943L 87.8821 64.7951ZM 109.881 73.2302L 110.1 102.559L 130.099 102.41L 129.881 73.0813L 109.881 73.2302ZM 113.432 79.2722C 111.256 78.0392 109.9 75.7367 109.881 73.2302L 129.881 73.0813C 129.846 68.4331 127.332 64.1607 123.292 61.8714L 113.432 79.2722ZM 94.8701 64.7435C 92.7191 66.005 90.0565 66.0271 87.8821 64.7951L 97.7418 47.3943C 93.703 45.1059 88.7528 45.1454 84.7524 47.4915L 94.8701 64.7435ZM 72.9997 73.5068C 73.0184 76.0147 71.6958 78.3345 69.542 79.5976L 59.4242 62.3456C 55.4191 64.6945 52.9656 69.0041 53.0003 73.6558L 72.9997 73.5068ZM 69.6675 96.7941C 71.8436 98.0271 73.1995 100.33 73.2182 102.836L 53.2187 102.985C 53.2533 107.633 55.7675 111.905 59.8079 114.195L 69.6675 96.7941ZM 88.2295 111.323C 90.3805 110.061 93.0431 110.039 95.2174 111.271L 85.3578 128.672C 89.3965 130.96 94.3467 130.921 98.3472 128.575L 88.2295 111.323ZM 123.675 113.721C 127.68 111.372 130.134 107.062 130.099 102.41L 110.1 102.559C 110.081 100.052 111.404 97.7318 113.558 96.4686L 123.675 113.721Z"/>
</defs>
</svg>
